# xmcd CD database file
#
# Track frame offsets:
#	150
#	31072
#	64284
#	78957
#	121078
#	154894
#	167354
#	173766
#	205489
#
# Disc length: 3106 seconds
#
# Revision: 0
# Processed by: cddbd v1.5.2PL0 Copyright (c) Steve Scherf et al.
# Submitted via: CDex 1.51
#
DISCID=690c2009
DTITLE=Dizzy Krisch, Karoline Höfler, Bill Elgart and Lauren Newton - Lonely Woman
DYEAR=2016
DGENRE=Jazz
TTITLE0=Green
TTITLE1=Moments of Love
TTITLE2=Miniatur 2 Hadenei
TTITLE3=Evolutienne
TTITLE4=Lonely Woman
TTITLE5=Evolutism
TTITLE6=Miniatur Farben 1
TTITLE7=Contenance au Lit
TTITLE8=Setup
EXTD=YEAR: 2016
EXTT0=
EXTT1=
EXTT2=
EXTT3=
EXTT4=
EXTT5=
EXTT6=
EXTT7=
EXTT8=
PLAYORDER=
